<?xml version="1.0" encoding="UTF-8"?>
<!DOCTYPE svg PUBLIC "-//W3C//DTD SVG 1.1//EN" "http://www.w3.org/Graphics/SVG/1.1/DTD/svg11.dtd">
<!-- Creator: CorelDRAW 2018 -->
<svg xmlns="http://www.w3.org/2000/svg" xml:space="preserve" width="0.33335in" height="0.333343in" version="1.1" style="shape-rendering:geometricPrecision; text-rendering:geometricPrecision; image-rendering:optimizeQuality; fill-rule:evenodd; clip-rule:evenodd"
viewBox="0 0 333.35 333.35"
 xmlns:xlink="http://www.w3.org/1999/xlink">
 <defs>
  <style type="text/css">
   <![CDATA[
    .fil0 {fill:#B9C3CC}
   ]]>
  </style>
 </defs>
 <g id="Layer_x0020_1">
  <metadata id="CorelCorpID_0Corel-Layer"/>
  <path class="fil0" d="M323.01 283.67l-78.96 -67.16c-8.17,-7.34 -16.9,-10.72 -23.95,-10.4 18.63,-21.83 29.9,-50.16 29.9,-81.12 0,-69.03 -55.97,-125 -125,-125 -69.03,0 -125,55.97 -125,125 0,69.03 55.97,125 125,125 30.96,0 59.28,-11.26 81.12,-29.9 -0.32,7.05 3.05,15.78 10.4,23.95l67.16 78.96c11.5,12.77 30.28,13.85 41.74,2.4 11.46,-11.46 10.39,-30.24 -2.4,-41.74l-0 0zm-198 -75.32c-46.02,0 -83.34,-37.31 -83.34,-83.34 0,-46.02 37.31,-83.34 83.34,-83.34 46.02,0 83.34,37.31 83.34,83.34 0,46.02 -37.31,83.34 -83.34,83.34z"/>
 </g>
</svg>
